<?xml version="1.0" encoding="utf-8"?>
<!-- Generator: Adobe Illustrator 23.0.2, SVG Export Plug-In . SVG Version: 6.00 Build 0)  -->
<svg version="1.1" id="Layer_1" xmlns="http://www.w3.org/2000/svg" xmlns:xlink="http://www.w3.org/1999/xlink" x="0px" y="0px"
	 viewBox="0 0 149.9022 234.0893" enable-background="new 0 0 149.9022 234.0893" xml:space="preserve">
<g>
	<path d="M102.8826,52.0357c0.8285-1.9542,1.3969-4.0568,1.6465-6.2737c1.3906-12.3488-7.4911-23.4858-19.8408-24.8766
		c-12.3477-1.3906-23.4859,7.492-24.8766,19.8408c-0.3016,2.6776-0.1185,5.2977,0.4766,7.7744l33.511,7.6415L102.8826,52.0357z"/>
	<path d="M12.2291,74.921c-0.0918,2.6328,1.1191,5.1418,3.2373,6.7087l30.75,22.75c1.4307,1.0588,3.0986,1.5693,4.752,1.5693
		c2.4492,0,4.8682-1.1216,6.4375-3.2424c2.627-3.5518,1.8779-8.5615-1.6738-11.1892L34.3375,75.6884l12.0352-7.6732l1.5742,1.7241
		l-8.2414,5.2545l-0.3989,1.5098l17.7936,13.165c4.5654,3.3774,5.5322,9.8398,2.1553,14.4058
		c-1.9346,2.6143-5.0322,4.1748-8.2871,4.1748c-2.2178,0-4.334-0.6987-6.1201-2.0208l-11.2053-8.29l-4.9964,18.9096
		c-1.3604,3.083-1.4897,6.6987-0.0386,10.0322l19.0312,43.7188l-21.1465,45.7422c-2.8965,6.2666-0.165,13.6943,6.1016,16.5918
		c1.6982,0.7852,3.4814,1.1563,5.2373,1.1563c4.7217,0,9.2422-2.6895,11.3545-7.2578l23.5-50.834
		c1.4971-3.2383,1.5391-6.9629,0.1143-10.2344l-8.4697-19.4561l24.6465,27.2471l1.3672,47.3926
		c0.1963,6.7783,5.752,12.1396,12.4883,12.1396c0.1221,0,0.2451-0.002,0.3672-0.0049c6.9004-0.1992,12.334-5.9551,12.1348-12.8555
		l-1.5-52c-0.0859-2.9736-1.2295-5.8193-3.2246-8.0254l-28.9995-32.0591l13.9253-52.7017l34.7334-15.7014
		c3.8145-1.7239,5.6543-6.0957,4.2217-10.0281l-12.75-35c-1.5107-4.1504-6.1006-6.2915-10.2549-4.7786
		c-4.1514,1.5125-6.291,6.1038-4.7783,10.2551l10.21,28.0283L94.042,58.5563l-41.7713-9.5249
		c-0.6492-0.2388-1.325-0.3937-2.0134-0.4592l-0.2509-0.0572c-0.0248,0.0096-0.0479,0.0232-0.0726,0.0331
		c-1.611-0.0875-3.2631,0.3024-4.7282,1.236l-0.8409,0.5361l-8.9427,5.7014L15.9234,68.453
		C13.7017,69.8693,12.3209,72.2882,12.2291,74.921z"/>
	<path d="M34.6735,12.49c-1.2436,7.2127,7.0706,2.2029,19.4353,4.015C50.4847,8.2974,35.9949,4.8258,34.6735,12.49z"/>
	<path d="M64.1328,14.0413c2.7406-6.5588-3.1661-16.7794-8.2914-13.3593C51.018,3.9008,58.4313,5.947,64.1328,14.0413z"/>
	<path d="M55.376,29.5207c-3.5206-5.1229-13.831-5.627-13.7472-0.2395C41.7077,34.3513,46.7253,29.8736,55.376,29.5207z"/>
	<path d="M10.1089,67.7025c0.4927-0.25,0.6899-0.8516,0.4404-1.3447c-0.2495-0.4922-0.8511-0.6895-1.3438-0.4404
		c-2.1167,1.0723-3.4712,2.542-4.0259,4.3691c-0.8564,2.8213,0.5718,5.4092,0.6328,5.5176
		c0.1836,0.3262,0.5229,0.5098,0.8726,0.5098c0.166,0,0.3345-0.041,0.4893-0.1289c0.4814-0.2705,0.6523-0.8799,0.3813-1.3613
		c-0.0107-0.0195-1.0635-1.9756-0.4619-3.9561C7.4835,69.5824,8.4981,68.518,10.1089,67.7025z"/>
	<path d="M2.3697,76.8451c0.4951-0.2432,0.6992-0.8418,0.4575-1.3369c-0.0156-0.0322-1.5479-3.2412-0.3931-6.4697
		c0.7563-2.1152,2.5059-3.8145,5.2007-5.0518c0.502-0.2305,0.7222-0.8242,0.4917-1.3262c-0.231-0.5029-0.8267-0.7217-1.3257-0.4922
		c-3.2129,1.4756-5.3184,3.5674-6.2583,6.2197c-1.4307,4.0361,0.4116,7.8438,0.4907,8.0039
		c0.1743,0.3516,0.5278,0.5557,0.8955,0.5557C2.0772,76.9477,2.2276,76.9145,2.3697,76.8451z"/>
	<path d="M142.1602,59.7465c1.7627-1.5879,2.6855-3.3604,2.7432-5.2686c0.0894-2.9473-1.9663-5.0723-2.0537-5.1611
		c-0.3877-0.3945-1.0205-0.4004-1.4141-0.0117c-0.3936,0.3867-0.3989,1.0205-0.0117,1.4141
		c0.0151,0.0156,1.543,1.6289,1.4805,3.6982c-0.0405,1.3418-0.7412,2.6348-2.083,3.8428c-0.4102,0.3701-0.4434,1.002-0.0737,1.4121
		c0.1978,0.2197,0.4702,0.3311,0.7437,0.3311C141.7296,60.0033,141.9688,59.9184,142.1602,59.7465z"/>
	<path d="M144.1807,61.1996c-0.4243,0.3535-0.4814,0.9844-0.1279,1.4092c0.1978,0.2373,0.4819,0.3594,0.7686,0.3594
		c0.2256,0,0.4526-0.0762,0.6396-0.2314c2.7153-2.2637,4.2007-4.833,4.4146-7.6387c0.3262-4.2705-2.4478-7.4639-2.5659-7.5977
		c-0.3643-0.4131-0.9937-0.4512-1.4087-0.0879c-0.4141,0.3633-0.4546,0.9951-0.0923,1.4102
		c0.0234,0.0264,2.3418,2.7236,2.0713,6.1426C147.7027,57.2035,146.4581,59.3012,144.1807,61.1996z"/>
</g>
</svg>
